<svg width="95" height="95" viewBox="0 0 95 95" fill="none" xmlns="http://www.w3.org/2000/svg">
<path d="M72.7588 0.37207H20.8034C6.9776 0.37207 0 7.08335 0 20.3766V91.5222C0 93.2647 0.935927 94.3376 2.95235 94.3376H18.6577C20.5371 94.3376 21.747 93.2647 21.747 91.5222V88.821C21.747 82.2314 24.5243 78.6399 31.4258 77.9475H72.7588C87.9239 77.9475 94.7721 71.3731 94.7721 57.0071V21.3125C94.7721 6.94639 87.9239 0.37207 72.7588 0.37207ZM73.0479 50.9654C73.0479 58.7572 71.2826 60.3627 62.0147 60.3627H40.0014C30.741 60.3627 24.8287 63.452 21.7394 69.4937V25.6117C21.7394 19.57 23.2155 17.9568 30.5964 17.9568H62.0147C71.2826 17.9568 73.0479 19.57 73.0479 27.3542V50.9654Z" fill="white"/>
</svg>
